#!OML:ASF F:\VICON\USERDATA\INSTALL\rory3\rory3.ASF
:FULLY-SPECIFIED
:DEGREES
346
root 4.47836 17.8172 7.59302 354.46 23.1442 357.886
lowerback 12.4851 0.280621 -4.46668
upperback 1.09171 -0.164483 1.14872
thorax -5.84216 0.0489588 3.76733
lowerneck -8.7687 -11.2091 -14.4971
upperneck 32.1385 -18.3056 14.8419
head 15.7245 -7.98702 5.55047
rclavicle -2.42269e-015 -8.34896e-015
rhumerus -39.0104 -21.8538 -74.0572
rradius 35.172
rwrist 4.33054
rhand -23.7985 8.61272
rfingers 7.12502
rthumb 2.67199 -21.3503
lclavicle -2.42269e-015 -8.34896e-015
lhumerus -31.3622 8.32836 80.0834
lradius 28.853
lwrist -8.1924
lhand -18.7766 32.5813
lfingers 7.12502
lthumb 7.52077 62.4276
rfemur -14.0775 -5.42427 14.572
rtibia 36.1378
rfoot -18.0775 5.64014
rtoes -3.07639
lfemur -4.79225 -3.4219 -18.528
ltibia 27.8458
lfoot -14.1 -1.54365
ltoes -5.85526
347
root 4.44555 17.8237 7.61196 354.492 22.774 357.649
lowerback 12.3517 0.2584 -4.23587
upperback 1.09425 -0.150362 1.24768
thorax -5.76667 0.0492833 3.73726
lowerneck -8.94971 -11.1884 -14.5234
upperneck 32.0348 -18.2453 14.8658
head 15.709 -7.95569 5.56296
rclavicle 1.64122e-014 9.74045e-015
rhumerus -39.1139 -22.0059 -73.8275
rradius 34.6712
rwrist 4.93055
rhand -23.8058 9.06629
rfingers 7.12502
rthumb 2.66495 -20.8968
lclavicle 1.64122e-014 9.74045e-015
lhumerus -31.3338 9.21195 79.6543
lradius 28.3974
lwrist -8.25603
lhand -19.3897 30.4929
lfingers 7.12502
lthumb 6.92899 60.3595
rfemur -13.9563 -5.17733 14.319
rtibia 35.6465
rfoot -17.4154 4.38966
rtoes -2.12017
lfemur -4.74325 -3.25388 -18.099
ltibia 27.6293
lfoot -14.0923 -1.39778
ltoes -6.36021
348
root 4.41302 17.8306 7.63399 354.524 22.5289 357.601
lowerback 12.2939 0.195221 -4.15164
upperback 1.11327 -0.217864 1.28426
thorax -5.7079 0.0126357 3.73882
lowerneck -9.23776 -11.164 -14.4337
upperneck 32.0554 -18.149 14.7121
head 15.7301 -7.9057 5.48608
rclavicle -4.2192e-014 -3.97569e-015
rhumerus -39.3278 -22.1866 -73.6274
rradius 34.4073
rwrist 5.45972
rhand -23.7028 9.2002
rfingers 7.12502
rthumb 2.76442 -20.7616
lclavicle -4.2192e-014 -3.97569e-015
lhumerus -31.3686 9.88515 79.2594
lradius 28.2548
lwrist -8.49264
lhand -19.163 30.3323
lfingers 7.12502
lthumb 7.14777 60.1916
rfemur -13.7463 -5.04852 13.8014
rtibia 35.1774
rfoot -17.1263 3.08332
rtoes -2.08181
lfemur -4.60149 -3.21809 -17.8922
ltibia 27.385
lfoot -14.001 -1.31548
ltoes -6.3474
349
root 4.37956 17.8384 7.66142 354.525 22.4121 357.596
lowerback 12.3441 0.118731 -4.14713
upperback 1.05118 -0.319296 1.32876
thorax -5.79183 -0.0336558 3.80192
lowerneck -9.28863 -11.1538 -14.4593
upperneck 32.0153 -18.0906 14.6282
head 15.6994 -7.89251 5.45997
rclavicle 1.16289e-014 4.17448e-015
rhumerus -39.6872 -22.2003 -73.355
rradius 34.1896
rwrist 5.89219
rhand -23.7369 9.13406
rfingers 7.12502
rthumb 2.73145 -20.8282
lclavicle 1.16289e-014 4.17448e-015
lhumerus -31.6267 10.4562 78.9582
lradius 28.2686
lwrist -8.3959
lhand -19.7359 29.9223
lfingers 7.12502
lthumb 6.59475 59.7996
rfemur -13.4462 -4.97739 13.2013
rtibia 34.7355
rfoot -16.9499 1.6748
rtoes -1.65902
lfemur -4.37426 -3.29298 -17.7466
ltibia 27.1031
lfoot -13.915 -1.14652
ltoes -6.38232
350
root 4.34491 17.8478 7.68968 354.635 22.2362 357.66
lowerback 12.2923 0.090227 -4.23835
upperback 0.985426 -0.365704 1.3812
thorax -5.82735 -0.0515943 3.91737
lowerneck -9.31341 -11.1528 -14.5311
upperneck 31.8937 -18.0598 14.64
head 15.6491 -7.88894 5.47519
rclavicle 1.6524e-014 1.43125e-014
rhumerus -39.93 -22.329 -72.9898
rradius 33.833
rwrist 6.20636
rhand -23.8243 9.09298
rfingers 7.12502
rthumb 2.64702 -20.8703
lclavicle 1.6524e-014 1.43125e-014
lhumerus -31.7772 10.8355 78.7978
lradius 28.1879
lwrist -8.11059
lhand -20.5204 29.8196
lfingers 7.12502
lthumb 5.83739 59.7192
rfemur -13.2398 -4.83878 12.5387
rtibia 34.3206
rfoot -16.6212 0.490731
rtoes -0.378997
lfemur -4.19744 -3.21859 -17.6555
ltibia 26.7705
lfoot -13.8412 -1.0157
ltoes -6.54479
351
root 4.30874 17.8588 7.71441 354.771 22.016 357.615
lowerback 12.129 0.069576 -4.2352
upperback 0.994045 -0.380417 1.47334
thorax -5.72504 -0.0607222 4.01339
lowerneck -9.40854 -11.1404 -14.5207
upperneck 31.6571 -17.9973 14.6442
head 15.5401 -7.86091 5.4703
rclavicle 2.76621e-014 1.19271e-015
rhumerus -40.0044 -22.568 -72.626
rradius 33.4672
rwrist 6.41462
rhand -23.8443 8.92581
rfingers 7.12502
rthumb 2.62771 -21.0378
lclavicle 2.76621e-014 1.19271e-015
lhumerus -31.7024 10.9494 78.823
lradius 28.0606
lwrist -7.50135
lhand -19.8668 30.1911
lfingers 7.12502
lthumb 6.46839 60.0723
rfemur -13.132 -4.6492 12.0083
rtibia 33.9219
rfoot -16.1131 -0.509559
rtoes -0.312262
lfemur -4.11992 -3.18708 -17.4527
ltibia 26.4169
lfoot -13.7026 -0.800567
ltoes -7.31933
352
root 4.26977 17.8655 7.74189 354.86 21.829 357.589
lowerback 12.0112 0.0215653 -4.28536
upperback 0.992741 -0.440389 1.57162
thorax -5.6535 -0.0897756 4.15447
lowerneck -9.55314 -11.1152 -14.5276
upperneck 31.5564 -17.909 14.5917
head 15.498 -7.82494 5.45403
rclavicle 1.65923e-014 1.49089e-014
rhumerus -40.1999 -22.7242 -72.2861
rradius 33.2501
rwrist 6.46218
rhand -23.9459 8.84905
rfingers 7.12502
rthumb 2.52964 -21.1157
lclavicle 1.65923e-014 1.49089e-014
lhumerus -31.7284 10.77 78.9367
lradius 27.9878
lwrist -6.33322
lhand -20.1854 29.8489
lfingers 7.12502
lthumb 6.16081 59.7394
rfemur -12.9422 -4.50549 11.4594
rtibia 33.5296
rfoot -15.4622 -1.3401
rtoes 0.449743
lfemur -3.97662 -3.34525 -17.2795
ltibia 26.0746
lfoot -13.4973 -0.487995
ltoes -8.32493
353
root 4.22852 17.868 7.7704 354.812 21.6987 357.606
lowerback 12.019 -0.00563694 -4.37132
upperback 1.05169 -0.483803 1.63117
thorax -5.58975 -0.111158 4.27325
lowerneck -9.74168 -11.1434 -14.5719
upperneck 31.5081 -17.9392 14.6486
head 15.5391 -7.82835 5.4676
rclavicle 4.81432e-015 -8.74653e-015
rhumerus -40.3953 -22.9395 -71.9684
rradius 33.1083
rwrist 6.38305
rhand -23.9588 8.66885
rfingers 7.12502
rthumb 2.51713 -21.296
lclavicle 4.81432e-015 -8.74653e-015
lhumerus -31.8037 10.849 78.8988
lradius 28.0726
lwrist -6.23887
lhand -20.3626 29.958
lfingers 7.12502
lthumb 5.98972 59.8533
rfemur -12.5614 -4.42581 10.8662
rtibia 33.1192
rfoot -14.5707 -2.18787
rtoes 0.97932
lfemur -3.67748 -3.49892 -17.1459
ltibia 25.7456
lfoot -13.3579 -0.248118
ltoes -8.99477
354
root 4.1877 17.874 7.79659 354.851 21.5909 357.631
lowerback 11.9644 -0.0467738 -4.43174
upperback 1.10376 -0.540064 1.68788
thorax -5.49713 -0.140366 4.37549
lowerneck -9.86523 -11.1532 -14.5493
upperneck 31.3501 -17.9262 14.6589
head 15.4864 -7.81605 5.45583
rclavicle 3.03022e-014 -9.93923e-015
rhumerus -40.5013 -23.6786 -71.3883
rradius 32.6847
rwrist 6.87829
rhand -23.7307 8.71064
rfingers 7.12502
rthumb 2.7374 -21.2515
lclavicle 3.03022e-014 -9.93923e-015
lhumerus -31.8652 10.7572 78.9261
lradius 28.3067
lwrist -6.24819
lhand -19.796 30.8891
lfingers 7.12502
lthumb 6.53675 60.7682
rfemur -12.2829 -4.38364 10.2427
rtibia 32.6851
rfoot -13.4028 -2.79421
rtoes 2.11323
lfemur -3.49578 -3.43355 -16.9962
ltibia 25.4094
lfoot -13.2389 -0.210036
ltoes -9.45998
355
root 4.14433 17.884 7.8241 354.954 21.4722 357.564
lowerback 11.8668 -0.0961014 -4.38322
upperback 1.05434 -0.592814 1.74367
thorax -5.48918 -0.166236 4.41456
lowerneck -9.90029 -11.1364 -14.5216
upperneck 31.269 -17.8964 14.6681
head 15.4463 -7.79963 5.45549
rclavicle -1.60829e-014 -7.95139e-015
rhumerus -40.8199 -24.6199 -70.6665
rradius 32.2645
rwrist 7.53613
rhand -23.4981 8.85424
rfingers 7.12502
rthumb 2.96208 -21.1049
lclavicle -1.60829e-014 -7.95139e-015
lhumerus -31.968 10.2891 79.0434
lradius 28.4388
lwrist -5.68137
lhand -19.8701 30.9882
lfingers 7.12502
lthumb 6.46526 60.8695
rfemur -12.1028 -4.13674 9.74248
rtibia 32.2526
rfoot -12.0354 -3.42459
rtoes 5.13906
lfemur -3.41243 -3.32521 -16.7119
ltibia 25.0585
lfoot -13.1093 -0.250317
ltoes -9.74802
356
root 4.0957 17.8949 7.85452 354.84 21.2602 357.344
lowerback 11.9222 -0.105697 -4.249
upperback 1.02051 -0.585545 1.82662
thorax -5.55717 -0.162298 4.42659
lowerneck -9.87612 -11.1068 -14.4356
upperneck 31.1919 -17.8633 14.6656
head 15.3847 -7.7795 5.44429
rclavicle -2.56494e-014 -1.03368e-014
rhumerus -41.2376 -25.1951 -70.1221
rradius 32.0186
rwrist 7.68031
rhand -23.6188 8.83096
rfingers 7.12502
rthumb 2.84549 -21.1298
lclavicle -2.56494e-014 -1.03368e-014
lhumerus -32.1306 10.0008 78.9805
lradius 28.518
lwrist -5.84704
lhand -19.3021 30.483
lfingers 7.12502
lthumb 7.01349 60.3469
rfemur -11.7753 -3.69082 9.46674
rtibia 31.8439
rfoot -10.499 -4.19833
rtoes 7.35027
lfemur -3.11128 -3.42765 -16.2803
ltibia 24.6716
lfoot -12.9416 0.00713465
ltoes -10.0405
357
root 4.04709 17.9039 7.88418 354.768 21.031 357.145
lowerback 11.8865 -0.115072 -4.10872
upperback 1.05689 -0.572173 1.91744
thorax -5.50056 -0.1602 4.43972
lowerneck -9.97739 -11.0657 -14.4913
upperneck 31.112 -17.8131 14.797
head 15.385 -7.74755 5.51339
rclavicle 4.39997e-014 4.96962e-015
rhumerus -41.4456 -25.5988 -69.72
rradius 31.816
rwrist 7.69699
rhand -24.0095 8.48024
rfingers 7.12502
rthumb 2.46816 -21.4852
lclavicle 4.39997e-014 4.96962e-015
lhumerus -32.2009 9.99031 78.8667
lradius 28.5873
lwrist -6.44571
lhand -18.74 30.3984
lfingers 7.12502
lthumb 7.55614 60.2434
rfemur -11.5202 -3.39837 9.16147
rtibia 31.4769
rfoot -8.86415 -4.69504
rtoes 9.60084
lfemur -2.79806 -3.64829 -15.8949
ltibia 24.227
lfoot -12.7256 0.356243
ltoes -10.1163
358
root 4.00207 17.9102 7.91467 354.899 20.864 357.26
lowerback 11.7302 -0.115547 -4.21517
upperback 1.09248 -0.579892 1.93246
thorax -5.37372 -0.165685 4.51408
lowerneck -10.0393 -11.0576 -14.5519
upperneck 30.9492 -17.7869 14.8874
head 15.3358 -7.73423 5.55685
rclavicle 2.88921e-014 -1.11319e-014
rhumerus -41.6659 -26.0654 -69.2886
rradius 31.7401
rwrist 7.75963
rhand -24.1347 8.17762
rfingers 7.12502
rthumb 2.34723 -21.7892
lclavicle 2.88921e-014 -1.11319e-014
lhumerus -32.23 9.67933 78.9506
lradius 28.7042
lwrist -6.40537
lhand -18.7719 30.1512
lfingers 7.12502
lthumb 7.52534 59.9973
rfemur -11.4048 -3.32146 8.49658
rtibia 31.1717
rfoot -7.14075 -5.08698
rtoes 11.7161
lfemur -2.54964 -3.68843 -15.826
ltibia 23.7224
lfoot -12.5006 0.450763
ltoes -9.8038
359
root 3.95617 17.9207 7.94741 354.971 20.722 357.432
lowerback 11.6627 -0.112226 -4.39745
upperback 1.09762 -0.597464 1.91892
thorax -5.32706 -0.171925 4.60509
lowerneck -9.95543 -11.0186 -14.556
upperneck 30.7624 -17.7477 15.0027
head 15.2352 -7.71468 5.61066
rclavicle 4.47172e-014 -5.06901e-015
rhumerus -42.0121 -26.4873 -68.8449
rradius 31.7087
rwrist 7.72507
rhand -24.1003 8.22148
rfingers 7.12502
rthumb 2.38051 -21.745
lclavicle 4.47172e-014 -5.06901e-015
lhumerus -32.3187 9.33124 79.0648
lradius 28.7831
lwrist -6.00036
lhand -18.9877 29.3487
lfingers 7.12502
lthumb 7.31705 59.2022
rfemur -11.1738 -3.27124 7.79463
rtibia 30.8968
rfoot -5.51656 -5.49522
rtoes 13.5616
lfemur -2.22129 -3.60951 -15.8003
ltibia 23.234
lfoot -12.31 0.399848
ltoes -9.40288
360
root 3.90642 17.9321 7.97799 355.009 20.5601 357.577
lowerback 11.7297 -0.108193 -4.54182
upperback 1.06441 -0.614524 1.91282
thorax -5.39629 -0.174491 4.68559
lowerneck -10.2495 -10.993 -14.5403
upperneck 30.9668 -17.7078 14.9738
head 15.3871 -7.67949 5.60179
rclavicle 3.81977e-014 -1.39646e-014
rhumerus -42.3036 -26.8076 -68.4422
rradius 31.6438
rwrist 7.60333
rhand -23.808 7.84461
rfingers 7.12502
rthumb 2.66279 -22.1185
lclavicle 3.81977e-014 -1.39646e-014
lhumerus -32.3927 8.95118 79.1984
lradius 28.8818
lwrist -5.59469
lhand -19.643 28.7782
lfingers 7.12502
lthumb 6.68441 58.6527
rfemur -10.9074 -3.19418 7.16916
rtibia 30.6507
rfoot -4.06926 -5.9259
rtoes 14.9666
lfemur -1.87054 -3.6731 -15.7638
ltibia 22.7515
lfoot -12.1137 0.557237
ltoes -9.45011
